# xmcd
#
# Track frame offsets: 
#        150
#        13246
#        26458
#        40274
#        51398
#        66425
#        85473
#        97359
#        112634
#        127472
#        141559
#        154988
#        167167
#        180958
#        196973
#        212395
#
# Disc length: 3045 seconds
#
# Revision: 0
# Processed by: cddbd v1.5.2PL0 Copyright (c) Steve Scherf et al.
# Submitted via: ExactAudioCopy v1.3
#
DISCID=ed0be310
DTITLE=Aretha Franklin - The Atlantic Singles Collection 1967-1970 [CD
DTITLE=2)
DYEAR=2018
DGENRE=Soul
TTITLE0=The Weight
TTITLE1=Tracks Of My Tears
TTITLE2=I Can't See Myself Leaving You
TTITLE3=Gentle On My Mind
TTITLE4=Share Your Love With Me
TTITLE5=Pledging My Love - The Clock
TTITLE6=Eleanor Rigby
TTITLE7=It Ain't Fair
TTITLE8=Call Me
TTITLE9=Son Of A Preacher Man
TTITLE10=Spirit In The Dark - with The Dixie Flyers
TTITLE11=The Thrill Is Gone - with The Dixie Flyers
TTITLE12=Don't Play That Song - with The Dixie Flyers
TTITLE13=Let It Be - with The Dixie Flyers
TTITLE14=Border Song (Holy Moses)
TTITLE15=You and Me - with The Dixie Flyers
EXTD=
EXTT0=
EXTT1=
EXTT2=
EXTT3=
EXTT4=
EXTT5=
EXTT6=
EXTT7=
EXTT8=
EXTT9=
EXTT10=
EXTT11=
EXTT12=
EXTT13=
EXTT14=
EXTT15=
PLAYORDER=
